<?xml version="1.0" encoding="UTF-8"?>
<svg id="Layer_1" data-name="Layer 1" xmlns="http://www.w3.org/2000/svg" viewBox="0 0 4411.69 647.7">
  <defs>
    <style>
      .cls-1 {
        fill: #787d80;
      }

      .cls-1, .cls-2 {
        stroke-width: 0px;
      }

      .cls-2 {
        fill: #d52e27;
      }
    </style>
  </defs>
  <g id="SIMBOLO">
    <path class="cls-2" d="M163.07,606.01c46.2,26.38,99.52,41.51,156.33,41.69,175.13.56,319.35-142.9,321.45-319.88.62-52.08-10.94-101.36-31.96-145.15-107.31,147.81-258.9,260.73-435.01,318.8-46.99,15.49-53.85,79.97-10.81,104.54Z"/>
    <path class="cls-2" d="M316.23.03C140.27,2.31,0,146.01,0,323.85c0,11.01.54,21.89,1.61,32.61,7.11,71.76,76.53,119.22,145.06,99.11,178.33-52.33,333.21-160.38,444.96-304.27C534.19,59.28,432.18-1.48,316.23.03Z"/>
    <path class="cls-2" d="M722.41,28.04l-126.98,36.57c-7.8,2.25-8.55,13.13-1.13,16.44l54.43,24.3c2.1.94,3.74,2.67,4.57,4.83l21.66,56.02c2.95,7.64,13.74,7.36,16.3-.42l41.74-126.55c2.2-6.68-3.9-13.13-10.6-11.2Z"/>
  </g>
  <g>
    <path class="cls-1" d="M962.43,223.06c-4.5-13.06-2.78-25.13,5.18-36.23,8.25-11.7,19.72-17.55,34.43-17.55h3.83c9.3,0,17.7,2.77,25.2,8.32,7.35,5.25,12.3,12.23,14.85,20.93l32.18,103.51c10.83,36.02,24.59,88.66,24.59,88.66,0,0,12.76-49.51,24.91-87.31l33.98-105.53c2.55-8.4,7.43-15.23,14.63-20.48,7.5-5.4,15.9-8.1,25.2-8.1h.9c14.55,0,26.1,5.92,34.65,17.78,7.95,11.4,9.52,23.55,4.73,36.44l-78.53,217.38c-4.65,13.04-12.68,23.47-24.08,31.27-11.4,8.1-24.23,12.15-38.48,12.15h-.68c-14.55,0-27.45-4.05-38.7-12.15-11.55-8.25-19.58-18.97-24.08-32.17l-74.71-216.92Z"/>
    <path class="cls-1" d="M1360.87,442.68c0,11.24-4.05,20.77-12.15,28.57-8.1,8.4-18.15,12.6-30.15,12.6h-.68c-12,0-22.05-4.2-30.15-12.6-8.1-7.8-12.15-17.33-12.15-28.57v-232.68c0-11.24,4.05-20.77,12.15-28.57,8.1-8.4,18.15-12.6,30.15-12.6h.68c12,0,22.05,4.2,30.15,12.6,8.1,7.8,12.15,17.33,12.15,28.57v232.68Z"/>
    <path class="cls-1" d="M1673.57,430.29c4.81,12.75,3.22,24.9-4.71,36.45-8.56,11.85-20.12,17.77-34.66,17.77h-.9c-9.29,0-17.71-2.7-25.2-8.1-7.2-5.24-12.08-12.07-14.63-20.47l-13.71-41.63h-89.34l-12.6,40.96c-2.55,8.7-7.51,15.67-14.86,20.92-7.5,5.55-15.9,8.32-25.2,8.32h-3.83c-14.7,0-26.18-5.84-34.43-17.54-7.95-11.1-9.68-23.18-5.18-36.23l74.72-217.15c4.5-13.04,12.37-23.62,23.61-31.72,11.55-8.4,24.62-12.6,39.16-12.6h.67c14.25,0,27.09,4.05,38.47,12.15,11.41,7.95,19.42,18.38,24.09,31.27l78.52,217.6ZM1557.78,345.01l-23.18-81.9-22.57,81.9h45.76Z"/>
    <path class="cls-1" d="M1812.57,169.72c11.1,0,20.48,3.83,28.13,11.47,7.65,7.66,11.47,16.73,11.47,27.23v157.96c-.15,36-9.29,65.33-27.44,87.99-21.46,27.15-50.71,36.9-87.77,29.24-3.44-.6-7.64-1.95-12.6-4.04-12.6-5.7-18.9-15.23-18.9-28.58v-.45c0-8.4,2.93-15.53,8.78-21.37,6.15-6.46,13.72-9.68,22.72-9.68,5.4-.15,10.65-1.42,15.76-3.82,12.3-6.01,18.44-20.86,18.44-44.56v-141.75h-9c-7.2,0-13.65-2.26-19.34-6.76-5.4-4.04-8.93-9.44-10.58-16.2v-.67c-2.4-8.7-.6-16.72,5.4-24.07,6-7.95,14.1-11.93,24.3-11.93h50.62Z"/>
    <path class="cls-1" d="M2074.88,419.71c9.45,0,17.4,3.31,23.85,9.9,6.45,6.15,9.67,13.66,9.67,22.5v.9c0,8.85-3.22,16.36-9.67,22.5-6.45,6.6-14.4,9.9-23.85,9.9h-132.31c-13.95,0-25.8-4.87-35.55-14.62-9.45-9.45-14.17-20.77-14.17-33.98v-217.82c0-13.2,4.72-24.52,14.17-33.97s21.6-14.63,35.55-14.63h125.33c10.96,0,19.8,4.13,26.56,12.38,6.3,8.1,8.39,17.1,6.3,27l-.23.68c-1.65,7.35-5.55,13.57-11.7,18.67-6,4.65-13.05,6.97-21.15,6.97h-89.56v35.78h84.16c9.45,0,17.4,3.3,23.85,9.9,6.45,6.15,9.67,13.57,9.67,22.28v.67c0,8.7-3.3,16.35-9.9,22.95s-14.17,9.45-23.62,9.45h-84.16v82.58h96.76Z"/>
    <path class="cls-1" d="M2280.48,294.38c28.66,10.5,49.59,23.4,62.78,38.7,13.8,15.9,20.7,35.25,20.7,58.05,0,27.6-9.75,50.48-29.25,68.64-23.26,21.6-56.93,32.4-101.04,32.4-16.49,0-37.43-3.68-62.77-11.03-9.3-2.7-16.27-8.03-20.93-15.97-4.65-8.26-5.84-16.73-3.6-25.43l.23-.67c2.4-9.61,8.1-16.88,17.1-21.83,8.85-4.95,18.3-5.92,28.35-2.93,19.35,6.01,34.58,9,45.68,9,13.34,0,23.62-2.47,30.82-7.42,7.05-4.65,10.58-11.25,10.58-19.8,0-7.5-3.08-13.8-9.23-18.9-7.2-5.85-19.8-11.92-37.8-18.22-59.26-21.16-88.88-53.26-88.88-96.31,0-29.11,11.4-52.66,34.2-70.67,22.65-18.15,52.28-27.22,88.88-27.22,13.2,0,30.68,2.77,52.43,8.32,9.74,2.26,17.02,7.58,21.82,15.98,4.65,8.1,5.78,16.58,3.38,25.42l-.23.9c-2.55,8.71-7.87,15.38-15.97,20.03-8.56,4.8-17.56,5.92-27,3.37-13.5-3.75-25.29-5.62-35.33-5.62-12.45,0-22.05,2.55-28.8,7.65-5.7,4.2-8.55,9.52-8.55,15.97,0,7.5,3.75,13.8,11.25,18.9,6.9,4.66,20.63,10.88,41.17,18.68Z"/>
  </g>
  <g>
    <path class="cls-2" d="M2787.82,426.81c5.4,9.29,6.82,19.12,4.28,29.47-2.7,10.35-8.85,18.38-18.45,24.07l-.68.46c-10.05,5.69-20.55,7.12-31.5,4.27-11.1-2.85-19.5-9.07-25.2-18.67l-52.43-88.89-33.3.22v68.4c0,10.96-3.98,20.41-11.93,28.36-7.95,7.94-17.78,11.92-29.48,11.92h-.68c-11.85,0-21.75-4.12-29.7-12.38-7.95-7.64-11.93-16.94-11.93-27.9v-236.04c0-11.1,3.97-20.63,11.93-28.58,8.25-8.25,18.3-12.37,30.15-12.37h85.28c4.35,0,9.15.38,14.4,1.13l2.03.22c25.65,4.05,46.95,15.82,63.9,35.32,16.8,19.51,25.2,42.08,25.2,67.74,0,20.7-6.52,41.17-19.58,61.43-4.65,7.64-9.83,13.79-15.53,18.44l43.2,73.37ZM2630.76,313.63h29.93c10.5,0,19.42-3.98,26.78-11.92,7.95-8.4,11.93-18.54,11.93-30.38s-3.98-21.98-11.93-30.38c-7.35-8.1-16.28-12.14-26.78-12.14h-29.93v84.83Z"/>
    <path class="cls-2" d="M3006.26,163.99c46.5,4.34,84.16,21.07,112.96,50.17,30.15,30.3,45.22,69.83,45.22,118.58,0,44.86-13.27,81.69-39.82,110.49-28.35,30.6-67.88,47.33-118.59,50.18-3.3.29-5.78.44-7.42.44h-7.43c-1.65,0-4.05-.15-7.2-.44-50.85-2.86-90.46-19.58-118.81-50.18-26.55-28.8-39.82-65.63-39.82-110.49,0-48.75,15.07-88.28,45.22-118.58,28.8-29.11,66.53-45.83,113.19-50.17,4.79-.61,8.55-.9,11.25-.9,2.54,0,6.3.29,11.25.9ZM2995.01,424.78c21.89,0,40.72-9.15,56.47-27.45,16.2-18.9,24.3-41.85,24.3-68.86s-8.1-49.95-24.3-68.86c-15.75-18.3-34.58-27.45-56.47-27.45s-40.88,9.15-56.48,27.45c-16.35,18.9-24.52,41.85-24.52,68.86s8.17,49.95,24.52,68.86c15.6,18.3,34.43,27.45,56.48,27.45Z"/>
    <path class="cls-2" d="M3397.04,171.63c17.25,0,29.85,7.28,37.8,21.83,7.8,14.7,7.27,28.8-1.58,42.3l-60.3,93.38,60.3,93.39c8.85,13.65,9.46,27.68,1.8,42.08-8.1,14.69-20.77,22.04-38.02,22.04h-.9c-17.55,0-30.3-7.49-38.25-22.5l-37.35-71.32-37.35,71.32c-8.1,15.01-20.85,22.5-38.25,22.5h-.9c-17.4,0-30.08-7.35-38.02-22.04-7.81-14.4-7.28-28.44,1.57-42.08l60.53-93.39-60.53-93.38c-8.85-13.5-9.3-27.6-1.35-42.3,7.8-14.55,20.4-21.83,37.8-21.83h.9c17.4,0,30.15,7.58,38.25,22.73l37.35,71.11,37.35-71.11c7.95-15.15,20.7-22.73,38.25-22.73h.9Z"/>
    <path class="cls-2" d="M3751.37,431.53c4.8,12.75,3.22,24.9-4.72,36.45-8.56,11.85-20.1,17.77-34.66,17.77h-.9c-9.29,0-17.7-2.7-25.2-8.1-7.2-5.24-12.07-12.07-14.62-20.47l-13.72-41.63h-89.34l-12.6,40.96c-2.55,8.7-7.5,15.67-14.85,20.92-7.5,5.55-15.9,8.32-25.2,8.32h-3.82c-14.7,0-26.19-5.84-34.43-17.54-7.95-11.1-9.67-23.18-5.17-36.23l74.71-217.15c4.5-13.04,12.37-23.62,23.62-31.72,11.55-8.4,24.61-12.6,39.15-12.6h.67c14.25,0,27.09,4.05,38.48,12.15,11.4,7.95,19.42,18.38,24.08,31.27l78.53,217.6ZM3635.57,346.25l-23.17-81.9-22.58,81.9h45.76Z"/>
    <path class="cls-2" d="M3878.67,445.94c0,11.1-4.04,20.7-12.14,28.8-7.95,7.95-17.85,11.92-29.7,11.92h-.68c-11.85,0-21.75-3.97-29.7-11.92-8.1-8.1-12.15-17.7-12.15-28.8v-233.57c0-11.1,4.05-20.7,12.15-28.8,7.95-7.95,17.85-11.93,29.7-11.93h21.15c15,0,26.63,6.08,34.87,18.23l119.04,173.04v-150.54c0-11.1,3.98-20.55,11.93-28.35,8.25-8.25,18.22-12.38,29.92-12.38h.68c11.85,0,21.75,3.98,29.7,11.93,8.1,8.1,12.14,17.7,12.14,28.8v212.19c0,16.95-6.14,31.59-18.44,43.88-12.16,12.15-27,18.22-44.56,18.22h-1.12c-23.55,0-41.4-9.9-53.55-29.7l-99.24-161.11v150.09Z"/>
    <path class="cls-2" d="M4408.98,431.53c4.8,12.75,3.22,24.9-4.72,36.45-8.56,11.85-20.1,17.77-34.66,17.77h-.9c-9.29,0-17.7-2.7-25.2-8.1-7.2-5.24-12.07-12.07-14.62-20.47l-13.72-41.63h-89.34l-12.6,40.96c-2.55,8.7-7.5,15.67-14.85,20.92-7.5,5.55-15.9,8.32-25.2,8.32h-3.82c-14.7,0-26.19-5.84-34.43-17.54-7.95-11.1-9.67-23.18-5.17-36.23l74.71-217.15c4.5-13.04,12.37-23.62,23.62-31.72,11.55-8.4,24.61-12.6,39.15-12.6h.67c14.25,0,27.09,4.05,38.48,12.15,11.4,7.95,19.42,18.38,24.08,31.27l78.53,217.6ZM4293.17,346.25l-23.17-81.9-22.58,81.9h45.76Z"/>
  </g>
</svg>